<?xml version="1.0" standalone="no"?>
<!DOCTYPE svg PUBLIC "-//W3C//DTD SVG 1.1//EN" "http://www.w3.org/Graphics/SVG/1.1/DTD/svg11.dtd" >
<svg xmlns="http://www.w3.org/2000/svg" xmlns:xlink="http://www.w3.org/1999/xlink" version="1.1" viewBox="-10 0 267 256">
   <path fill="currentColor"
d="M59 7q4 2 10 4q0 1 1 1q3 3 2 5q-3 5 -6 21q15 -5 15 -8q1 -1 5 -1l4 2q6 1 8 2q2 4 -2 5q-6 -1 -14 2q-5 3 -12 6q-4 2 -5 2q-5 12 -13 30q10 -6 38 -14q7 -1 10 1q12 9 14 17q-1 4 -5 2q-4 -3 -6 3q-4 13 -16 29q-9 11 -14 8q-5 1 -10 -8q-3 1 -6 -1q1 6 -1 6 q-5 2 -9 -1q-8 -5 -7 -12q1 -5 0 -7q-4 -7 -7 -9q-5 1 -4 -3v-2q1 -3 2 -5q2 -3 7 0q0 2 3 0q7 -2 8 -9q6 -18 7 -24q-13 4 -25 -1q-3 -1 1 -2q15 0 26 -5q0 -5 3 -21q0 -9 -3 -12q-2 -3 1 -1zM90 70q-22 5 -38 10q-2 3 -6 4q-6 7 -2 10q4 6 8 17q1 4 8 2q10 -5 16 -7 q5 -1 4 1q0 2 -6 5h-1q-3 0 -7 3q4 6 13 0q15 -14 17 -40q0 -7 -6 -5zM200 88q7 5 13 10q3 4 0 5l-2 2q-4 2 -3 6q0 31 -1 55v17q-1 21 2 42q-1 4 -6 2q-8 -7 -14 -9q-17 -8 -21 -14q-3 -1 1 0q10 2 26 5q6 1 7 -4q4 -55 -3 -106q-3 -9 -9 -6q-3 2 -7 3t-6 2q-6 5 -16 0 q-3 -1 0 -2q11 0 26 -9q7 -4 13 1zM144 100q3 0 12 7q2 3 2 4t-2 2q-5 3 -4 8q-3 29 -2 48q0 19 3 44q0 2 -1 3q-2 1 -3 0q-6 -10 -12 -10q-3 0 -9 -2q-2 -1 -2 -2q1 -1 3 -1q15 2 16 -6v-33v-51q0 -5 -6 -4q-8 0 -19 6q-12 5 -17 1q-3 0 0 -1q4 -1 13 -4q6 -3 11 -5 q3 -1 17 -4zM88 135q-1 -2 0 -2h4q3 0 6 1q10 2 12 7q-1 3 -4 1q-9 -3 -14 -2q-16 4 -23 7q0 11 -1 37t8 33q0 4 -2 5q-7 -4 -17 -18q-2 -1 0 -3q4 -3 8 -3v-50l-36 12q-10 5 -17 0q-1 -1 1 -2q5 1 21 -5q8 -3 23 -6q5 -2 8 -3q-1 -13 -9 -15q-2 0 -1 -3q1 -2 7 0q2 2 1 1 q7 5 6 7v8q17 -4 19 -7zM165 19q-6 8 -10 13q12 1 20 11q12 20 31 36q9 8 22 6q9 0 23 5q4 2 0 2q-13 0 -24 1q-10 1 -21 -9q-17 -15 -36 -38q-8 -10 -16 -10q-27 51 -49 66q-6 3 -1 -2q28 -27 48 -72q2 -4 0 -4t1 -3q5 -5 8 -5q6 1 4 3zM135 152q2 -2 3 -2q1 1 0 4 q-15 27 -34 39q-9 3 -7 -5q-1 -2 2 0q-1 2 6 -2q13 -11 30 -34zM187 120q6 2 3 7q-5 2 -10 6q-3 2 -2 -1q1 -2 0 -3q0 -1 -2 -1q-2 1 -4 1q-4 1 -7 2q-2 1 -3 0q0 -2 2 -3q13 -6 23 -8zM135 127q2 1 3 3q0 3 -2 3q-8 2 -12 7q-3 3 -4 2l1 -4q1 -3 -5 2q-5 3 -2 -2 q7 -13 21 -11zM172 163q7 -5 16 -7q2 0 2 1q1 1 -1 3q-5 5 -17 9q-11 4 -13 2q-1 -2 1 -1q4 1 12 -7zM51 100q-5 1 -1 -1q1 0 3 -2q13 -7 14 -9l2 -2q1 1 4 0q2 -1 3 -1q4 -1 5 1q2 2 -5 5q-18 7 -25 9z" />
</svg>
