<?xml version="1.0" standalone="no"?>
<!DOCTYPE svg PUBLIC "-//W3C//DTD SVG 1.1//EN" "http://www.w3.org/Graphics/SVG/1.1/DTD/svg11.dtd" >
<svg xmlns="http://www.w3.org/2000/svg" xmlns:xlink="http://www.w3.org/1999/xlink" version="1.1" viewBox="-10 0 267 256">
   <path fill="currentColor"
d="M70 25q3 3 9 5h2q6 2 12 8q1 4 -1 4q-7 2 -15 0q-3 1 -3 0t1 -3q2 0 -7 -12q-3 -3 2 -2zM87 96q2 2 1 7q-8 2 -16 7l-3 2q-1 0 0 -2q0 -1 -2 -1q-4 2 -7 2q-3 1 0 -2h1q7 -3 11 -6q9 -6 15 -7zM89 118q3 2 0 5q-7 3 -14 12q-3 3 -5 3q-2 -1 1 -4q1 -2 1 -4q-1 -1 -3 0 q-8 6 -14 3q-2 -1 0 -3q11 -2 18 -6q1 0 2 -1q5 -4 14 -5zM94 157q1 1 1 2q0 2 -1 2q-11 6 -12 14q1 0 2 -1t3 -2t6 0q2 5 -3 6q-11 0 -18 4q-3 2 -3 -2q-1 -2 0 -3l1 -1q0 1 2 0q3 -1 5 -1q3 -7 3 -12q-1 -3 -4 -1q-9 5 -13 6q0 17 7 22q1 3 -1 5q-2 1 -3 -1l-4 -2 q-3 -4 -4 -6q-2 -1 -1 -5q2 -8 -1 -18q-3 -2 -1 -6q0 -1 1 0q1 5 6 7q1 0 3 -1q1 -1 9 -3h1q2 -1 3 -3q5 -4 16 0zM142 16q-3 -2 0 -2q15 3 25 20q29 -4 45 0q14 2 17 11q0 1 -1 3t-5 1q-6 -2 -23 5q-3 1 -7 3q-13 5 -22 6q-2 1 0 -1q9 -3 18 -8q11 -6 26 -12q2 -1 2 -3 t-3 -3q-17 -3 -46 1q2 8 -3 11q-3 2 -4 0q-8 -1 -9 -7q-7 2 -19 8q-8 3 -12 1q-2 0 1 -2q12 -5 29 -11q0 -13 -9 -21zM114 49q3 19 9 19v1q2 1 2 2q-1 7 -5 5q-4 0 -9 -6q-2 -1 -2 -3q-49 7 -77 18q-7 4 -20 1q-3 0 0 -2q13 0 39 -8h1q9 -3 17 -4q21 -4 28 -9q1 -2 5 -1 q1 0 2 1t3 0v-3q-1 -2 1 -3q4 -3 5 -8q0 -1 1 0zM177 76q5 6 13 10q4 5 0 7q-10 6 -9 14q-2 38 3 78h14q10 -1 14 -2q3 0 8 -3l1 -1q4 -4 9 -1q2 2 6 5q10 6 16 9q1 4 -1 6q-6 3 -13 -3q-6 -7 -13 -8h-20q-10 0 -21 1q0 4 -2 4q-3 0 -5 -3q-30 5 -48 9l-10 2q-14 4 -26 2 q-3 0 0 -2q12 -1 30 -5q27 -5 53 -9q-3 -7 -8 -14q-3 -4 2 -2q7 6 9 1q0 -4 -1 -12q-1 -7 0 -12q-21 10 -27 4q0 12 3 27q-3 7 -5 3q-4 -8 -10 -24q-1 -2 -1 -4q-4 -8 3 -12q4 -2 4 -10t-2 -21v-3q0 -5 -4 -14q-1 -2 2 -1q0 2 1 3q9 12 7 14q-1 1 -1 2v9q4 0 11 -5q0 1 2 -1 q6 -4 15 -1q-1 -1 -1 -3q-1 -15 -1 -29q0 -3 -1 -3q-1 -1 -4 -1q-1 1 -5 2l-6 2q-6 4 -16 5q-4 1 0 -1q3 -1 10 -4t13 -6q9 -3 12 1zM176 114q-1 1 -3 2l-4 2q-5 2 -8 8q-4 4 -2 -1q1 -3 1 -4h-2q-6 2 -9 1q-1 20 1 26q5 2 10 -1q7 -3 17 -3q0 -4 -1 -15v-15z" />
</svg>
